<svg width="512" height="512" viewBox="0 0 680 680" xmlns="http://www.w3.org/2000/svg">
<defs>
  <clipPath id="circle-clip">
    <circle cx="340" cy="340" r="300"/>
  </clipPath>
</defs>

<circle cx="340" cy="340" r="300" fill="#c8d5d0"/>
<ellipse cx="340" cy="340" r="220" fill="#dce8e2" clip-path="url(#circle-clip)"/>
<ellipse cx="200" cy="200" r="160" fill="#e8d5da" opacity="0.6" clip-path="url(#circle-clip)"/>
<ellipse cx="480" cy="460" r="150" fill="#d5e0d8" opacity="0.5" clip-path="url(#circle-clip)"/>

<g clip-path="url(#circle-clip)">
  <ellipse cx="520" cy="120" r="55" fill="#8B3A52" opacity="0.85"/>
  <ellipse cx="568" cy="95" r="42" fill="#9B4560" opacity="0.8"/>
  <ellipse cx="545" cy="155" r="45" fill="#7A2F45" opacity="0.75"/>
  <ellipse cx="490" cy="85" r="38" fill="#A04E68" opacity="0.7"/>
  <ellipse cx="590" cy="140" r="36" fill="#8B3A52" opacity="0.65"/>
  <ellipse cx="510" cy="60" r="30" fill="#C47090" opacity="0.6"/>
  <circle cx="540" cy="115" r="22" fill="#5A1F35" opacity="0.9"/>
  <circle cx="540" cy="115" r="12" fill="#7A2F45" opacity="0.8"/>
  <ellipse cx="460" cy="170" rx="35" ry="14" fill="#5a8a6a" opacity="0.8" transform="rotate(-30 460 170)"/>
  <ellipse cx="610" cy="180" rx="32" ry="12" fill="#4a7a5a" opacity="0.75" transform="rotate(20 610 180)"/>
  <ellipse cx="575" cy="60" rx="28" ry="10" fill="#5a8a6a" opacity="0.7" transform="rotate(-50 575 60)"/>
</g>

<g clip-path="url(#circle-clip)">
  <ellipse cx="130" cy="560" r="58" fill="#6B2040" opacity="0.85"/>
  <ellipse cx="80" cy="530" r="45" fill="#7B3050" opacity="0.8"/>
  <ellipse cx="160" cy="600" r="50" fill="#5A1530" opacity="0.75"/>
  <ellipse cx="100" cy="600" r="42" fill="#8B3A52" opacity="0.7"/>
  <ellipse cx="55" cy="580" r="35" fill="#6B2040" opacity="0.65"/>
  <ellipse cx="180" cy="530" r="38" fill="#9B4560" opacity="0.6"/>
  <circle cx="120" cy="565" r="24" fill="#3A0F25" opacity="0.9"/>
  <circle cx="120" cy="565" r="13" fill="#5A1F35" opacity="0.8"/>
  <ellipse cx="220" cy="610" r="40" fill="#e8d5c0" opacity="0.8"/>
  <ellipse cx="255" cy="590" r="32" fill="#d8c5b0" opacity="0.75"/>
  <ellipse cx="195" cy="580" r="35" fill="#ecddc8" opacity="0.7"/>
  <circle cx="225" cy="598" r="18" fill="#c8b090" opacity="0.85"/>
  <ellipse cx="200" cy="550" rx="38" ry="13" fill="#5a8a6a" opacity="0.8" transform="rotate(25 200 550)"/>
  <ellipse cx="70" cy="510" rx="33" ry="11" fill="#4a7a5a" opacity="0.75" transform="rotate(-15 70 510)"/>
  <ellipse cx="280" cy="640" rx="30" ry="10" fill="#5a8a6a" opacity="0.7" transform="rotate(40 280 640)"/>
</g>

<g clip-path="url(#circle-clip)">
  <circle cx="400" cy="90" r="8" fill="#d4849a" opacity="0.7"/>
  <circle cx="415" cy="78" r="6" fill="#c47080" opacity="0.65"/>
  <circle cx="385" cy="78" r="6" fill="#c47080" opacity="0.65"/>
  <circle cx="400" cy="66" r="6" fill="#d4849a" opacity="0.6"/>
  <circle cx="400" cy="82" r="4" fill="#8B3A52" opacity="0.8"/>
  <circle cx="620" cy="380" r="7" fill="#d4849a" opacity="0.65"/>
  <circle cx="633" cy="370" r="5" fill="#c47080" opacity="0.6"/>
  <circle cx="607" cy="370" r="5" fill="#c47080" opacity="0.6"/>
  <circle cx="620" cy="358" r="5" fill="#d4849a" opacity="0.55"/>
  <circle cx="620" cy="372" r="3" fill="#8B3A52" opacity="0.75"/>
  <circle cx="80" cy="280" r="7" fill="#d4849a" opacity="0.6"/>
  <circle cx="93" cy="270" r="5" fill="#c47080" opacity="0.55"/>
  <circle cx="67" cy="270" r="5" fill="#c47080" opacity="0.55"/>
  <circle cx="80" cy="258" r="5" fill="#d4849a" opacity="0.5"/>
  <circle cx="80" cy="272" r="3" fill="#8B3A52" opacity="0.7"/>
</g>

<circle cx="340" cy="340" r="300" fill="none" stroke="#8B3A52" stroke-width="6" opacity="0.4"/>
<circle cx="340" cy="340" r="290" fill="none" stroke="#c8d5d0" stroke-width="2" opacity="0.3"/>

<text x="340" y="390" text-anchor="middle" font-family="serif" font-size="180" font-weight="400" fill="#3d0f28" opacity="0.92" letter-spacing="8">九十三</text>

<ellipse cx="300" cy="260" rx="120" ry="80" fill="white" opacity="0.08" clip-path="url(#circle-clip)"/>
</svg>
